<svg width="30" height="30" viewBox="0 0 30 30" fill="none" xmlns="http://www.w3.org/2000/svg">
<circle cx="15" cy="15" r="13" fill="url(#paint0_linear_23_2)"/>
<path d="M16.1667 14.3833L13.5 12.2666H16.5833C22.1833 12.5333 22.45 21.2666 16.4333 22.05H9.16666L9.91666 20.15C10.0633 19.8566 10.3222 19.8055 10.4333 19.8166H16.3C19.6167 19.1666 19.2667 14.8 16.7667 14.45H16.5167C16.3333 14.45 16.3 14.45 16.1667 14.3833Z" fill="#333038"/>
<path d="M19.7499 9.84999L20.5166 7.93332H13.0666C9.03332 8.29999 8.24999 13 10.6999 15.0048L15.15 18.4C15.9 18.6333 16.3333 18.35 16.6666 18C16.9666 17.65 16.9333 16.9833 16.75 16.8C15.2833 15.6667 12.3266 13.34 12.0333 13.1C11.7399 12.86 11.6222 12.5778 11.6 12.4667C11.2333 11.1167 12.211 10.35 12.9999 10.1833H19.2499C19.5433 10.1833 19.7055 9.9611 19.7499 9.84999Z" fill="#333038"/>
<path d="M16.95 2.64999C31.2228 3.74433 31.25 28 14.35 27.35C27.3198 26.0579 31.7708 7.64433 16.3 2.64999H16.95Z" fill="#945C34"/>
<circle cx="15" cy="15" r="12.75" stroke="#333038" stroke-width="0.5"/>
<defs>
<linearGradient id="paint0_linear_23_2" x1="17.6667" y1="14.05" x2="41.3" y2="14.05" gradientUnits="userSpaceOnUse">
<stop stop-color="#CEBB93"/>
<stop offset="1" stop-color="#945C34"/>
</linearGradient>
</defs>
</svg>
